<svg aria-hidden="true" style="position: absolute; width: 0; height: 0; overflow: hidden;" version="1.1" xmlns="http://www.w3.org/2000/svg" xmlns:xlink="http://www.w3.org/1999/xlink">
<defs>
<symbol id="icon-microsoft" viewBox="0 0 34 32">
<path fill="#f05423" style="fill: var(--color1, #f05423)" d="M16.318 15.238h-16.318v-15.238h16.318v15.238z"></path>
<path fill="#84c441" style="fill: var(--color2, #84c441)" d="M34.341 15.238h-16.318v-15.238h16.318v15.238z"></path>
<path fill="#2dabe2" style="fill: var(--color3, #2dabe2)" d="M16.318 32h-16.318v-15.238h16.318v15.238z"></path>
<path fill="#f9bc15" style="fill: var(--color4, #f9bc15)" d="M34.341 32h-16.318v-15.238h16.318v15.238z"></path>
</symbol>
<symbol id="icon-android" viewBox="0 0 29 32">
<path fill="#a4c639" style="fill: var(--color5, #a4c639)" d="M23.752 9.574h-18.228v13.027c-0.008 0.622 0.226 1.222 0.654 1.68 0.418 0.446 0.995 0.739 1.64 0.789l0.009 0.001v5.074c0.030 0.502 0.255 0.974 0.628 1.318 0.361 0.333 0.845 0.537 1.377 0.537 0.001 0 0.002 0 0.003 0h-0c0.513 0 1.006-0.192 1.379-0.537s0.598-0.816 0.628-1.318v-5.061h5.608v5.061c0.031 0.502 0.255 0.974 0.628 1.318 0.361 0.333 0.845 0.537 1.377 0.537 0.001 0 0.002 0 0.003 0h-0c0.513 0 1.006-0.192 1.379-0.537s0.598-0.816 0.628-1.318v-5.074c0.654-0.050 1.232-0.343 1.651-0.787l0.001-0.001c0.429-0.458 0.664-1.059 0.658-1.68v-12.796l-0.020-0.232zM2.011 10.72c0.531 0 1.042 0.207 1.417 0.575s0.587 0.868 0.587 1.389v8.444c0.001 0.259-0.050 0.515-0.15 0.754-0.106 0.249-0.253 0.462-0.434 0.64l-0 0c-0.182 0.178-0.398 0.323-0.638 0.422l-0.013 0.005c-0.227 0.095-0.492 0.15-0.769 0.15-0.553 0-1.055-0.22-1.422-0.578l0 0c-0.363-0.354-0.588-0.847-0.589-1.394v-8.444c0-0.259 0.052-0.515 0.153-0.754s0.249-0.456 0.436-0.638c0.187-0.182 0.408-0.327 0.653-0.426 0.225-0.093 0.486-0.147 0.76-0.147 0.003 0 0.006 0 0.009 0h-0zM27.273 10.72c0.531 0 1.042 0.207 1.417 0.575s0.587 0.868 0.587 1.389v8.444c0.001 0.259-0.050 0.515-0.15 0.754s-0.248 0.456-0.434 0.64c-0.182 0.178-0.398 0.323-0.638 0.422l-0.013 0.005c-0.227 0.095-0.492 0.151-0.769 0.151-0.553 0-1.055-0.22-1.422-0.578l0 0c-0.363-0.354-0.588-0.847-0.589-1.393v-8.444c0-0.259 0.052-0.515 0.153-0.754s0.249-0.456 0.436-0.638c0.187-0.182 0.409-0.327 0.653-0.426 0.225-0.093 0.486-0.147 0.76-0.147 0.003 0 0.006 0 0.009 0h-0zM5.566 8.21h18.089c-0.053-1.96-0.894-3.713-2.216-4.962l-0.003-0.003 1.747-2.905c0.025-0.034 0.040-0.077 0.040-0.123 0-0.084-0.050-0.157-0.122-0.19l-0.001-0.001c-0.030-0.016-0.065-0.025-0.102-0.025-0.077 0-0.144 0.039-0.183 0.099l-0 0.001-1.648 2.83c-1.803-1.384-4.072-2.244-6.539-2.319l-0.017-0c-2.469 0.096-4.721 0.953-6.548 2.34l0.029-0.021-1.62-2.803c-0.026-0.051-0.070-0.090-0.124-0.108l-0.002-0c-0.022-0.008-0.048-0.013-0.075-0.013-0.033 0-0.065 0.007-0.094 0.020l0.001-0.001c-0.062 0.038-0.103 0.106-0.103 0.183 0 0.038 0.010 0.073 0.027 0.104l-0.001-0.001 1.697 2.885c-1.339 1.263-2.187 3.035-2.233 5.005l-0 0.008zM17.616 4.662c0-0.271 0.11-0.531 0.306-0.723s0.461-0.3 0.737-0.3c0.277 0 0.543 0.108 0.738 0.3s0.306 0.452 0.306 0.724c0 0.271-0.11 0.531-0.306 0.723s-0.461 0.3-0.738 0.3c-0.276 0-0.542-0.108-0.737-0.3-0.188-0.184-0.306-0.44-0.306-0.723v-0zM9.866 4.662c0-0.271 0.11-0.531 0.306-0.723s0.461-0.3 0.738-0.3c0.276 0 0.542 0.108 0.738 0.3s0.306 0.452 0.306 0.724c0 0.271-0.11 0.531-0.306 0.723s-0.461 0.3-0.737 0.3c-0.277 0-0.543-0.108-0.738-0.3-0.188-0.184-0.305-0.44-0.306-0.723v-0z"></path>
</symbol>
<symbol id="icon-apple" viewBox="0 0 27 32">
<path fill="#fff" style="fill: var(--color6, #fff)" d="M22.426 16.994c0.008 1.451 0.461 2.794 1.23 3.901l-0.015-0.023c0.797 1.147 1.89 2.039 3.168 2.574l0.048 0.018c-0.575 1.735-1.351 3.242-2.321 4.6l0.035-0.052c-1.372 1.95-2.803 3.895-5.054 3.945-2.25 0.051-2.907-1.268-5.443-1.268s-3.314 1.229-5.409 1.307c-2.093 0.079-3.821-2.125-5.193-4.063-2.832-3.946-5.001-11.222-2.094-16.114 0.704-1.199 1.674-2.171 2.834-2.858l0.037-0.020c1.136-0.676 2.497-1.090 3.952-1.129l0.011-0c2.128-0.039 4.141 1.387 5.443 1.387s3.751-1.719 6.321-1.466c1.191 0.042 2.355 0.35 3.402 0.901 1.059 0.562 1.941 1.328 2.619 2.251l0.015 0.021c-0.157 0.096-3.606 2.041-3.571 6.087h-0.017zM18.273 5.106c1.247-1.415 1.863-3.251 1.716-5.106-1.889 0.173-3.637 1.040-4.886 2.423-1.064 1.195-2 3.111-1.745 4.949 1.855 0.141 3.746-0.913 4.897-2.254z"></path>
</symbol>
<symbol id="icon-yes" viewBox="0 0 47 32">
<path fill="#3dc644" style="fill: var(--color7, #3dc644)" d="M46.562 0.655c-0.213-0.203-0.466-0.367-0.745-0.479l-0.016-0.006c-0.266-0.108-0.575-0.171-0.898-0.171s-0.632 0.063-0.915 0.177l0.016-0.006c-0.295 0.118-0.547 0.281-0.761 0.485l0.001-0.001-27.436 26.005-11.88-11.255c-0.421-0.369-0.977-0.595-1.585-0.595-0.017 0-0.034 0-0.051 0.001l0.002-0c-0.624 0.008-1.19 0.253-1.612 0.649l0.001-0.001c-0.427 0.405-0.674 0.952-0.684 1.525-0.011 0.574 0.213 1.128 0.626 1.548l13.531 12.818c0.216 0.206 0.472 0.37 0.757 0.482 0.264 0.107 0.569 0.169 0.89 0.169 0.64 0 1.222-0.247 1.657-0.651l-0.001 0.001 29.102-27.569c0.433-0.418 0.677-0.978 0.677-1.563s-0.244-1.147-0.677-1.563z"></path>
</symbol>
<symbol id="icon-no" viewBox="0 0 32 32">
<path fill="#f25b26" style="fill: var(--color8, #f25b26)" d="M18.541 16.008l12.93-12.942c0.328-0.323 0.53-0.772 0.53-1.268s-0.203-0.945-0.53-1.268l-0-0c-0.326-0.322-0.774-0.52-1.268-0.52s-0.942 0.199-1.268 0.52l0-0-12.929 12.942-12.941-12.942c-0.323-0.327-0.772-0.53-1.268-0.53s-0.945 0.203-1.268 0.53l-0 0c-0.322 0.326-0.52 0.774-0.52 1.268s0.199 0.942 0.52 1.268l-0-0 12.942 12.942-12.942 12.93c-0.327 0.323-0.53 0.772-0.53 1.268s0.203 0.944 0.53 1.267l0 0c0.325 0.324 0.773 0.525 1.268 0.525s0.943-0.201 1.268-0.525l12.941-12.93 12.929 12.93c0.32 0.301 0.752 0.485 1.227 0.485 0.991 0 1.794-0.803 1.794-1.794 0-0.475-0.185-0.907-0.486-1.228l0.001 0.001-12.93-12.93z"></path>
</symbol>
<symbol id="icon-academy" viewBox="0 0 25 32">
<path d="M12.84 0.015l-0.135-0.015-12.706 1.324v23.159l12.706 7.517 12.706-7.517v-23.159l-12.571-1.309zM23.75 23.544l-11.044 6.532-11.044-6.533v-9.492l10.998 6.509 0.019 1.179-7.545-4.464-0.010 1.153 7.573 4.526 0.019 1.21-7.572-4.478-0.009 1.154 7.573 4.523 7.646-4.549v-4.901l3.407-2.024-0.009 9.653zM23.75 12.661l-3.031 1.769-1.395 0.824-6.649-3.941-0.010 1.153 5.685 3.363-0.172 0.101-0.809 0.463-4.693-2.775-0.010 1.153 3.704 2.191-0.878 0.574-0.020 0.011-2.796-1.64-0.010 1.153 1.832 1.068-1.871 1.116-10.935-6.468 10.953-6.549 11.106 6.432zM23.75 11.508l-11.1-6.51-10.987 6.504v-8.687l11.044-1.154 11.044 1.154v8.694z"></path>
</symbol>
<symbol id="icon-twitter" viewBox="0 0 41 32">
<path d="M26.432 0.386c0.753-0.245 1.62-0.387 2.52-0.387 0.819 0 1.61 0.117 2.358 0.335l-0.059-0.015c1.573 0.448 2.951 1.349 3.938 2.565 1.623-0.48 3.223-1.022 4.871-1.499-0.026 0.773-0.237 1.491-0.59 2.119l0.012-0.023c-0.359 0.649-0.869 1.218-1.493 1.666 0.578 0.059 1.161-0.005 1.707-0.185 0.549-0.183 1.042-0.475 1.447-0.859-0.226 0.946-0.686 1.831-1.344 2.585-0.656 0.754-1.493 1.358-2.446 1.765-0.565 14.331-7.696 23.925-24.432 23.534h-1.15c-1.013 0-10.098-0.978-11.769-4 4.005 0.56 8.089-0.336 11.392-2.503-2.354-0.654-6.519-1.022-7.225-6.263 0.887 0.304 1.851 0.373 2.777 0.194-2.923-1.803-6.169-3.326-5.982-8.002 0.91 0.699 2.069 1.056 3.248 1.001-1.694-0.521-4.777-7.134-2.165-10.528 4.402 3.938 9.061 7.657 17.349 8.027 0.514-4.873 2.752-8.137 7.033-9.527z"></path>
</symbol>
<symbol id="icon-facebook" viewBox="0 0 16 32">
<path d="M11.572 5.676h4.428v-5.676h-5.298c-5.792 0.304-7.858 4.037-7.010 10.34h-3.692v5.931h3.691v15.73h7.013v-15.73h5.259v-5.931h-5.278c-0.036-1.774-0.073-4.071 0.887-4.663z"></path>
</symbol>
<symbol id="icon-youtube" viewBox="0 0 37 32">
<path d="M4.514 31.53c-0.466 0.297-1.034 0.473-1.644 0.473-0.558 0-1.082-0.148-1.535-0.407l0.015 0.008c-0.468-0.263-0.841-0.647-1.083-1.11l-0.007-0.015c-0.164-0.315-0.26-0.688-0.26-1.084 0-0.141 0.012-0.28 0.036-0.415l-0.002 0.014v-25.989c-0.021-0.12-0.034-0.259-0.034-0.4 0-0.396 0.096-0.769 0.267-1.097l-0.006 0.013c0.231-0.465 0.613-0.857 1.090-1.127 0.437-0.25 0.96-0.398 1.517-0.398 0.61 0 1.179 0.177 1.658 0.482l-0.013-0.007 30.523 13.543c2.516 1.095 2.516 2.878 0 3.973l-30.523 13.543z"></path>
</symbol>
</defs>
</svg>
